# xmcd CD database file
#
# Track frame offsets:
#	150
#	14813
#	27662
#	45510
#	61799
#	78245
#	92919
#	113322
#	126522
#	143986
#	159550
#	184557
#	199495
#	222291
#	245725
#
# Disc length: 3480 seconds
#
# Revision: 0
# Processed by: cddbd v1.5.2PL0 Copyright (c) Steve Scherf et al.
# Submitted via: CDex 1.70beta2
#
DISCID=d70d960f
DTITLE=High Society - Jazz in the City CD2
DYEAR=2008
DGENRE=Jazz
TTITLE0=Westlife - come fly with me
TTITLE1=Bette Midler - mambo italiano
TTITLE2=Steve Tyrell - as time goes by
TTITLE3=Jane Monheit - honeysuckle rose
TTITLE4=Mandy Moore - sceret love
TTITLE5=Natalie Cole - what a difference a day makes
TTITLE6=Aaron Neville - cry me a river
TTITLE7=Keiko Lee - you'd be so nice to come home
TTITLE8=Laura Fygi - eternal flame
TTITLE9=Will Young - light my fire
TTITLE10=Luther Vandross - killing me softly
TTITLE11=Alison Moyet - the first time ever i saw your face
TTITLE12=Chris Botti feat. Shawn Colvin - all would envy
TTITLE13=Kyle Eastwood feat. Diana King - why can't we live together
TTITLE14=Tuck and Patti - in my life
EXTD=YEAR: 2008
EXTT0=
EXTT1=
EXTT2=
EXTT3=
EXTT4=
EXTT5=
EXTT6=
EXTT7=
EXTT8=
EXTT9=
EXTT10=
EXTT11=
EXTT12=
EXTT13=
EXTT14=
PLAYORDER=
